<svg width="105" height="84" viewBox="0 0 105 84" fill="none" xmlns="http://www.w3.org/2000/svg">
<path d="M13.2558 78.044H5.10282L3.31559 82H2.21112L8.67727 67.9432H9.70141L16.1676 82H15.0631L13.2558 78.044ZM12.8742 77.1805L9.1793 69.0677L5.50444 77.1805H12.8742ZM22.4569 82.0803C21.4394 82.0803 20.5291 81.8527 19.7258 81.3976C18.9226 80.9424 18.2934 80.3132 17.8382 79.5099C17.383 78.6933 17.1555 77.7763 17.1555 76.7588C17.1555 75.728 17.383 74.8109 17.8382 74.0077C18.2934 73.191 18.9226 72.5618 19.7258 72.1201C20.5291 71.6649 21.4394 71.4373 22.4569 71.4373C23.3003 71.4373 24.0634 71.6046 24.7461 71.9393C25.4423 72.2606 26.0046 72.7359 26.433 73.3651L25.69 73.9073C25.3151 73.3852 24.8465 72.9969 24.2843 72.7426C23.7354 72.4748 23.1263 72.3409 22.4569 72.3409C21.6403 72.3409 20.9039 72.5284 20.248 72.9032C19.6054 73.2647 19.0966 73.7801 18.7218 74.4495C18.3603 75.1188 18.1796 75.8886 18.1796 76.7588C18.1796 77.629 18.3603 78.3988 18.7218 79.0681C19.0966 79.7375 19.6054 80.2596 20.248 80.6345C20.9039 80.9959 21.6403 81.1767 22.4569 81.1767C23.1263 81.1767 23.7354 81.0495 24.2843 80.7951C24.8465 80.5274 25.3151 80.1324 25.69 79.6103L26.433 80.1525C26.0046 80.7817 25.4423 81.2637 24.7461 81.5984C24.0634 81.9197 23.3003 82.0803 22.4569 82.0803ZM32.9732 71.4373C34.2717 71.4373 35.2691 71.772 35.9653 72.4414C36.6614 73.0973 37.0095 74.0679 37.0095 75.3531V82H36.0456V80.1324C35.7109 80.7483 35.2223 81.2302 34.5797 81.5783C33.9371 81.913 33.1673 82.0803 32.2703 82.0803C31.1056 82.0803 30.1819 81.8059 29.4991 81.257C28.8297 80.7081 28.4951 79.9852 28.4951 79.0882C28.4951 78.218 28.803 77.5152 29.4188 76.9797C30.048 76.4308 31.0454 76.1564 32.4109 76.1564H36.0054V75.313C36.0054 74.3357 35.7377 73.5927 35.2022 73.084C34.6801 72.5752 33.9103 72.3209 32.8928 72.3209C32.1967 72.3209 31.5273 72.4414 30.8847 72.6823C30.2555 72.9233 29.72 73.2446 29.2782 73.6462L28.7762 72.9233C29.2983 72.4547 29.9275 72.0933 30.6638 71.8389C31.4001 71.5712 32.1699 71.4373 32.9732 71.4373ZM32.4109 81.257C33.2811 81.257 34.0174 81.0562 34.6198 80.6546C35.2356 80.2529 35.6975 79.6706 36.0054 78.9075V76.9395H32.431C31.4001 76.9395 30.6504 77.127 30.1819 77.5018C29.7267 77.8767 29.4991 78.3921 29.4991 79.0481C29.4991 79.7308 29.7535 80.273 30.2622 80.6746C30.7709 81.0629 31.4871 81.257 32.4109 81.257ZM50.4836 67.0998V82H49.4997V79.53C49.0847 80.3466 48.5023 80.9759 47.7526 81.4176C47.0029 81.8594 46.1528 82.0803 45.2023 82.0803C44.225 82.0803 43.3414 81.8527 42.5516 81.3976C41.7617 80.9424 41.1392 80.3132 40.684 79.5099C40.2422 78.7067 40.0213 77.7896 40.0213 76.7588C40.0213 75.728 40.2422 74.8109 40.684 74.0077C41.1392 73.191 41.7617 72.5618 42.5516 72.1201C43.3414 71.6649 44.225 71.4373 45.2023 71.4373C46.1394 71.4373 46.9761 71.6582 47.7124 72.1C48.4621 72.5418 49.0512 73.1576 49.4796 73.9474V67.0998H50.4836ZM45.2625 81.1767C46.0658 81.1767 46.782 80.9892 47.4112 80.6144C48.0538 80.2395 48.5558 79.7174 48.9173 79.0481C49.2922 78.3787 49.4796 77.6156 49.4796 76.7588C49.4796 75.902 49.2922 75.1389 48.9173 74.4696C48.5558 73.8002 48.0538 73.2781 47.4112 72.9032C46.782 72.5284 46.0658 72.3409 45.2625 72.3409C44.4593 72.3409 43.7364 72.5284 43.0938 72.9032C42.4646 73.2781 41.9625 73.8002 41.5877 74.4696C41.2262 75.1389 41.0455 75.902 41.0455 76.7588C41.0455 77.6156 41.2262 78.3787 41.5877 79.0481C41.9625 79.7174 42.4646 80.2395 43.0938 80.6144C43.7364 80.9892 44.4593 81.1767 45.2625 81.1767ZM63.5727 76.9998H54.5562C54.583 77.8164 54.7905 78.546 55.1787 79.1886C55.567 79.8178 56.0891 80.3065 56.7451 80.6546C57.4144 81.0026 58.1641 81.1767 58.9941 81.1767C59.6769 81.1767 60.3061 81.0562 60.8818 80.8152C61.4708 80.5608 61.9595 80.1927 62.3477 79.7107L62.9301 80.3734C62.4749 80.9223 61.8992 81.344 61.2031 81.6385C60.5203 81.9331 59.7773 82.0803 58.9741 82.0803C57.9298 82.0803 56.9994 81.8527 56.1828 81.3976C55.3661 80.9424 54.7235 80.3132 54.255 79.5099C53.7998 78.7067 53.5722 77.7896 53.5722 76.7588C53.5722 75.7414 53.7864 74.831 54.2148 74.0278C54.6566 73.2111 55.259 72.5752 56.0221 72.1201C56.7852 71.6649 57.642 71.4373 58.5925 71.4373C59.543 71.4373 60.3931 71.6649 61.1428 72.1201C61.9059 72.5618 62.5017 73.1844 62.9301 73.9876C63.3718 74.7909 63.5927 75.7012 63.5927 76.7186L63.5727 76.9998ZM58.5925 72.3209C57.8562 72.3209 57.1935 72.4882 56.6045 72.8229C56.0154 73.1442 55.5402 73.6061 55.1787 74.2085C54.8306 74.7975 54.6298 75.4669 54.5763 76.2166H62.6088C62.5686 75.4669 62.3678 74.7975 62.0063 74.2085C61.6449 73.6194 61.1696 73.1576 60.5806 72.8229C59.9915 72.4882 59.3288 72.3209 58.5925 72.3209ZM79.7517 71.4373C81.0502 71.4373 82.0677 71.8188 82.804 72.5819C83.5537 73.345 83.9286 74.4428 83.9286 75.8752V82H82.9245V75.9556C82.9245 74.7775 82.6367 73.8805 82.061 73.2647C81.4853 72.6489 80.6821 72.3409 79.6513 72.3409C78.4732 72.3409 77.536 72.7091 76.8399 73.4454C76.1571 74.1817 75.8157 75.1724 75.8157 76.4174V82H74.8117V75.9556C74.8117 74.7775 74.5239 73.8805 73.9482 73.2647C73.3725 72.6489 72.5693 72.3409 71.5385 72.3409C70.3604 72.3409 69.4232 72.7091 68.7271 73.4454C68.0443 74.1817 67.7029 75.1724 67.7029 76.4174V82H66.6989V71.5176H67.6628V73.7667C68.0109 73.0304 68.5263 72.4614 69.209 72.0598C69.9052 71.6448 70.7285 71.4373 71.679 71.4373C72.6295 71.4373 73.4328 71.6515 74.0888 72.0799C74.7581 72.5083 75.2334 73.1375 75.5145 73.9675C75.8626 73.191 76.4048 72.5752 77.1411 72.1201C77.8908 71.6649 78.761 71.4373 79.7517 71.4373ZM88.0744 71.5176H89.0784V82H88.0744V71.5176ZM88.5764 68.9673C88.3488 68.9673 88.1547 68.8937 87.9941 68.7464C87.8334 68.5858 87.7531 68.3916 87.7531 68.1641C87.7531 67.9365 87.8334 67.7424 87.9941 67.5817C88.1547 67.4211 88.3488 67.3407 88.5764 67.3407C88.804 67.3407 88.9981 67.4211 89.1588 67.5817C89.3194 67.729 89.3997 67.9164 89.3997 68.144C89.3997 68.3716 89.3194 68.5657 89.1588 68.7263C88.9981 68.887 88.804 68.9673 88.5764 68.9673ZM96.8447 71.4373C98.1433 71.4373 99.1406 71.772 99.8368 72.4414C100.533 73.0973 100.881 74.0679 100.881 75.3531V82H99.9171V80.1324C99.5824 80.7483 99.0938 81.2302 98.4512 81.5783C97.8086 81.913 97.0388 82.0803 96.1418 82.0803C94.9771 82.0803 94.0534 81.8059 93.3706 81.257C92.7013 80.7081 92.3666 79.9852 92.3666 79.0882C92.3666 78.218 92.6745 77.5152 93.2903 76.9797C93.9195 76.4308 94.9169 76.1564 96.2824 76.1564H99.8769V75.313C99.8769 74.3357 99.6092 73.5927 99.0737 73.084C98.5516 72.5752 97.7818 72.3209 96.7644 72.3209C96.0682 72.3209 95.3988 72.4414 94.7562 72.6823C94.127 72.9233 93.5915 73.2446 93.1497 73.6462L92.6477 72.9233C93.1698 72.4547 93.799 72.0933 94.5353 71.8389C95.2717 71.5712 96.0414 71.4373 96.8447 71.4373ZM96.2824 81.257C97.1526 81.257 97.8889 81.0562 98.4913 80.6546C99.1072 80.2529 99.569 79.6706 99.8769 78.9075V76.9395H96.3025C95.2717 76.9395 94.522 77.127 94.0534 77.5018C93.5982 77.8767 93.3706 78.3921 93.3706 79.0481C93.3706 79.7308 93.625 80.273 94.1337 80.6746C94.6424 81.0629 95.3587 81.257 96.2824 81.257Z" fill="#1162A1"/>
<circle cx="52.6251" cy="42.5249" r="4.72499" fill="#F2C94C"/>
<circle cx="33.725" cy="23.6249" r="4.72499" fill="#41C178"/>
<circle cx="71.5249" cy="23.6249" r="4.72499" fill="#AD3392"/>
<circle cx="52.6251" cy="4.72499" r="4.72499" fill="#006585"/>
</svg>
