<svg width="43" height="37" viewBox="0 0 43 37" fill="none" xmlns="http://www.w3.org/2000/svg">
<path d="M6.30237 30.9961H3.14508L2.45296 32.5281H2.02525L4.52931 27.0845H4.92592L7.42998 32.5281H7.00227L6.30237 30.9961ZM6.15462 30.6617L4.72373 27.52L3.30061 30.6617H6.15462ZM9.86557 32.5592C9.47156 32.5592 9.11902 32.4711 8.80796 32.2948C8.49689 32.1185 8.25323 31.8749 8.07696 31.5638C7.90069 31.2476 7.81255 30.8924 7.81255 30.4984C7.81255 30.0992 7.90069 29.7441 8.07696 29.433C8.25323 29.1168 8.49689 28.8731 8.80796 28.702C9.11902 28.5258 9.47156 28.4376 9.86557 28.4376C10.1922 28.4376 10.4877 28.5024 10.7521 28.632C11.0217 28.7565 11.2394 28.9405 11.4053 29.1842L11.1176 29.3941C10.9724 29.1919 10.791 29.0416 10.5732 28.9431C10.3607 28.8394 10.1248 28.7876 9.86557 28.7876C9.54933 28.7876 9.26418 28.8601 9.01015 29.0053C8.7613 29.1453 8.56429 29.3449 8.41913 29.6041C8.27915 29.8633 8.20916 30.1614 8.20916 30.4984C8.20916 30.8354 8.27915 31.1335 8.41913 31.3927C8.56429 31.6519 8.7613 31.8541 9.01015 31.9993C9.26418 32.1393 9.54933 32.2093 9.86557 32.2093C10.1248 32.2093 10.3607 32.16 10.5732 32.0615C10.791 31.9578 10.9724 31.8049 11.1176 31.6027L11.4053 31.8127C11.2394 32.0563 11.0217 32.243 10.7521 32.3726C10.4877 32.497 10.1922 32.5592 9.86557 32.5592ZM13.9381 28.4376C14.441 28.4376 14.8272 28.5672 15.0968 28.8264C15.3664 29.0805 15.5012 29.4564 15.5012 29.9541V32.5281H15.1279V31.8049C14.9983 32.0434 14.8091 32.23 14.5602 32.3648C14.3114 32.4944 14.0133 32.5592 13.6659 32.5592C13.2149 32.5592 12.8571 32.4529 12.5927 32.2404C12.3335 32.0278 12.2039 31.7479 12.2039 31.4005C12.2039 31.0635 12.3231 30.7913 12.5616 30.584C12.8053 30.3714 13.1915 30.2651 13.7203 30.2651H15.1123V29.9385C15.1123 29.56 15.0087 29.2723 14.8013 29.0753C14.5991 28.8783 14.301 28.7798 13.907 28.7798C13.6374 28.7798 13.3782 28.8264 13.1293 28.9198C12.8856 29.0131 12.6783 29.1375 12.5072 29.293L12.3128 29.0131C12.515 28.8316 12.7586 28.6917 13.0438 28.5931C13.3289 28.4895 13.627 28.4376 13.9381 28.4376ZM13.7203 32.2404C14.0573 32.2404 14.3425 32.1626 14.5758 32.0071C14.8142 31.8515 14.9931 31.626 15.1123 31.3305V30.5684H13.7281C13.3289 30.5684 13.0386 30.641 12.8571 30.7861C12.6809 30.9313 12.5927 31.1309 12.5927 31.3849C12.5927 31.6494 12.6912 31.8593 12.8882 32.0149C13.0852 32.1652 13.3626 32.2404 13.7203 32.2404ZM20.7192 26.7579V32.5281H20.3381V31.5716C20.1774 31.8878 19.9519 32.1315 19.6615 32.3026C19.3712 32.4737 19.042 32.5592 18.6739 32.5592C18.2954 32.5592 17.9533 32.4711 17.6474 32.2948C17.3415 32.1185 17.1004 31.8749 16.9242 31.5638C16.7531 31.2527 16.6675 30.8976 16.6675 30.4984C16.6675 30.0992 16.7531 29.7441 16.9242 29.433C17.1004 29.1168 17.3415 28.8731 17.6474 28.702C17.9533 28.5258 18.2954 28.4376 18.6739 28.4376C19.0368 28.4376 19.3608 28.5232 19.646 28.6942C19.9363 28.8653 20.1644 29.1038 20.3303 29.4097V26.7579H20.7192ZM18.6972 32.2093C19.0083 32.2093 19.2857 32.1367 19.5293 31.9915C19.7782 31.8464 19.9726 31.6442 20.1126 31.3849C20.2577 31.1257 20.3303 30.8302 20.3303 30.4984C20.3303 30.1666 20.2577 29.8711 20.1126 29.6119C19.9726 29.3527 19.7782 29.1505 19.5293 29.0053C19.2857 28.8601 19.0083 28.7876 18.6972 28.7876C18.3862 28.7876 18.1062 28.8601 17.8574 29.0053C17.6137 29.1505 17.4193 29.3527 17.2741 29.6119C17.1341 29.8711 17.0642 30.1666 17.0642 30.4984C17.0642 30.8302 17.1341 31.1257 17.2741 31.3849C17.4193 31.6442 17.6137 31.8464 17.8574 31.9915C18.1062 32.1367 18.3862 32.2093 18.6972 32.2093ZM25.788 30.5917H22.2963C22.3066 30.908 22.387 31.1905 22.5374 31.4394C22.6877 31.683 22.8899 31.8723 23.1439 32.0071C23.4031 32.1419 23.6935 32.2093 24.0149 32.2093C24.2793 32.2093 24.523 32.1626 24.7459 32.0693C24.974 31.9708 25.1633 31.8282 25.3136 31.6416L25.5391 31.8982C25.3629 32.1108 25.1399 32.2741 24.8703 32.3881C24.6059 32.5022 24.3182 32.5592 24.0071 32.5592C23.6027 32.5592 23.2424 32.4711 22.9262 32.2948C22.6099 32.1185 22.3611 31.8749 22.1796 31.5638C22.0034 31.2527 21.9152 30.8976 21.9152 30.4984C21.9152 30.1044 21.9982 29.7519 22.1641 29.4408C22.3352 29.1245 22.5685 28.8783 22.864 28.702C23.1595 28.5258 23.4913 28.4376 23.8594 28.4376C24.2275 28.4376 24.5567 28.5258 24.847 28.702C25.1425 28.8731 25.3732 29.1142 25.5391 29.4252C25.7102 29.7363 25.7957 30.0888 25.7957 30.4829L25.788 30.5917ZM23.8594 28.7798C23.5742 28.7798 23.3176 28.8446 23.0895 28.9742C22.8614 29.0986 22.6773 29.2775 22.5374 29.5108C22.4026 29.7389 22.3248 29.9981 22.3041 30.2884H25.4147C25.3991 29.9981 25.3214 29.7389 25.1814 29.5108C25.0414 29.2827 24.8574 29.1038 24.6293 28.9742C24.4011 28.8446 24.1445 28.7798 23.8594 28.7798ZM32.0534 28.4376C32.5563 28.4376 32.9503 28.5854 33.2355 28.8809C33.5258 29.1764 33.6709 29.6015 33.6709 30.1562V32.5281H33.2821V30.1874C33.2821 29.7311 33.1707 29.3838 32.9477 29.1453C32.7248 28.9068 32.4137 28.7876 32.0145 28.7876C31.5583 28.7876 31.1954 28.9301 30.9258 29.2153C30.6614 29.5004 30.5292 29.8841 30.5292 30.3662V32.5281H30.1404V30.1874C30.1404 29.7311 30.0289 29.3838 29.806 29.1453C29.5831 28.9068 29.272 28.7876 28.8728 28.7876C28.4166 28.7876 28.0537 28.9301 27.7841 29.2153C27.5197 29.5004 27.3875 29.8841 27.3875 30.3662V32.5281H26.9986V28.4687H27.3719V29.3397C27.5067 29.0546 27.7063 28.8342 27.9707 28.6787C28.2403 28.518 28.5591 28.4376 28.9272 28.4376C29.2953 28.4376 29.6064 28.5206 29.8604 28.6865C30.1196 28.8524 30.3037 29.096 30.4126 29.4175C30.5473 29.1168 30.7573 28.8783 31.0425 28.702C31.3328 28.5258 31.6698 28.4376 32.0534 28.4376ZM35.2765 28.4687H35.6653V32.5281H35.2765V28.4687ZM35.4709 27.4811C35.3827 27.4811 35.3076 27.4526 35.2453 27.3956C35.1831 27.3333 35.152 27.2582 35.152 27.17C35.152 27.0819 35.1831 27.0067 35.2453 26.9445C35.3076 26.8823 35.3827 26.8512 35.4709 26.8512C35.559 26.8512 35.6342 26.8823 35.6964 26.9445C35.7586 27.0015 35.7897 27.0741 35.7897 27.1623C35.7897 27.2504 35.7586 27.3256 35.6964 27.3878C35.6342 27.45 35.559 27.4811 35.4709 27.4811ZM38.6728 28.4376C39.1757 28.4376 39.5619 28.5672 39.8315 28.8264C40.1011 29.0805 40.2359 29.4564 40.2359 29.9541V32.5281H39.8626V31.8049C39.733 32.0434 39.5438 32.23 39.2949 32.3648C39.0461 32.4944 38.748 32.5592 38.4006 32.5592C37.9496 32.5592 37.5919 32.4529 37.3275 32.2404C37.0682 32.0278 36.9386 31.7479 36.9386 31.4005C36.9386 31.0635 37.0579 30.7913 37.2964 30.584C37.54 30.3714 37.9263 30.2651 38.4551 30.2651H39.8471V29.9385C39.8471 29.56 39.7434 29.2723 39.536 29.0753C39.3338 28.8783 39.0357 28.7798 38.6417 28.7798C38.3721 28.7798 38.1129 28.8264 37.8641 28.9198C37.6204 29.0131 37.413 29.1375 37.2419 29.293L37.0475 29.0131C37.2497 28.8316 37.4934 28.6917 37.7785 28.5931C38.0637 28.4895 38.3618 28.4376 38.6728 28.4376ZM38.4551 32.2404C38.7921 32.2404 39.0772 32.1626 39.3105 32.0071C39.549 31.8515 39.7278 31.626 39.8471 31.3305V30.5684H38.4629C38.0637 30.5684 37.7733 30.641 37.5919 30.7861C37.4156 30.9313 37.3275 31.1309 37.3275 31.3849C37.3275 31.6494 37.426 31.8593 37.623 32.0149C37.82 32.1652 38.0974 32.2404 38.4551 32.2404Z" fill="#1162A1"/>
<circle cx="21.149" cy="17.4174" r="1.82979" fill="#F2C94C"/>
<circle cx="13.8298" cy="10.0982" r="1.82979" fill="#41C178"/>
<circle cx="28.4681" cy="10.0982" r="1.82979" fill="#AD3392"/>
<circle cx="21.149" cy="2.7791" r="1.82979" fill="#006585"/>
</svg>
