<svg width="43" height="43" viewBox="0 0 43 43" fill="none" xmlns="http://www.w3.org/2000/svg">
<path d="M23.6606 19.9151C28.3122 22.6008 32.2936 25.3882 34.9698 27.7137C36.3128 28.8808 37.2963 29.9052 37.8747 30.7209C38.1653 31.1308 38.3265 31.4506 38.3947 31.6809C38.4428 31.8431 38.4326 31.9152 38.4274 31.9351C38.4128 31.9496 38.3554 31.9945 38.1909 32.034C37.9574 32.0901 37.5997 32.1104 37.0994 32.0636C36.1038 31.9706 34.7249 31.631 33.0427 31.0515C29.6907 29.8966 25.286 27.8423 20.6344 25.1567C15.9828 22.4711 12.0013 19.6837 9.32519 17.3582C7.98221 16.1911 6.99868 15.1667 6.42032 14.351C6.12967 13.9411 5.96844 13.6213 5.90024 13.391C5.85221 13.2288 5.86234 13.1567 5.86758 13.1367C5.88221 13.1222 5.93963 13.0774 6.10411 13.0379C6.33762 12.9818 6.69523 12.9615 7.19555 13.0083C8.19116 13.1013 9.57008 13.4409 11.2522 14.0204C14.6043 15.1752 19.009 17.2295 23.6606 19.9151ZM38.4253 31.9411C38.4253 31.9411 38.4256 31.9402 38.4264 31.9385L38.4253 31.9411ZM38.4298 31.9326C38.4309 31.931 38.4315 31.9303 38.4315 31.9304L38.4298 31.9326ZM5.86964 13.1307C5.8697 13.1308 5.8694 13.1317 5.86853 13.1335L5.86964 13.1307ZM5.86522 13.1392C5.86415 13.1408 5.86348 13.1416 5.86342 13.1415L5.86522 13.1392Z" stroke="#644E80" stroke-width="1.55028"/>
<path d="M20.6344 19.9151C15.9828 22.6008 12.0013 25.3882 9.3252 27.7137C7.98222 28.8808 6.9987 29.9052 6.42033 30.7209C6.12969 31.1308 5.96845 31.4506 5.90026 31.6809C5.85222 31.8431 5.86235 31.9152 5.86759 31.9351C5.88222 31.9496 5.93963 31.9945 6.10412 32.034C6.33763 32.0901 6.69525 32.1104 7.19557 32.0636C8.19117 31.9706 9.57009 31.631 11.2523 31.0515C14.6043 29.8966 19.009 27.8423 23.6606 25.1567C28.3122 22.4711 32.2937 19.6837 34.9698 17.3582C36.3128 16.1911 37.2963 15.1667 37.8747 14.351C38.1653 13.9411 38.3265 13.6213 38.3947 13.391C38.4428 13.2288 38.4326 13.1567 38.4274 13.1367C38.4128 13.1222 38.3554 13.0774 38.1909 13.0379C37.9574 12.9818 37.5997 12.9615 37.0994 13.0083C36.1038 13.1013 34.7249 13.4409 33.0427 14.0204C29.6907 15.1752 25.286 17.2295 20.6344 19.9151ZM5.86966 31.9411C5.86971 31.9411 5.8694 31.9402 5.86857 31.9385L5.86966 31.9411ZM5.86517 31.9326C5.86413 31.931 5.86349 31.9303 5.86344 31.9304L5.86517 31.9326ZM38.4253 13.1307C38.4253 13.1308 38.4256 13.1317 38.4265 13.1335L38.4253 13.1307ZM38.4298 13.1392C38.4308 13.1408 38.4315 13.1416 38.4316 13.1415L38.4298 13.1392Z" stroke="#644E80" stroke-width="1.55028"/>
<path d="M25.1737 22.536C25.1737 17.1647 24.7505 12.323 24.0746 8.84264C23.7354 7.09607 23.34 5.73211 22.9227 4.82338C22.7131 4.36671 22.5167 4.06715 22.3514 3.89297C22.2349 3.77028 22.1674 3.74297 22.1475 3.73755C22.1276 3.74297 22.0601 3.77026 21.9436 3.89297C21.7783 4.06715 21.5819 4.36671 21.3723 4.82338C20.955 5.73211 20.5596 7.09607 20.2204 8.84264C19.5446 12.323 19.1213 17.1647 19.1213 22.536C19.1213 27.9072 19.5446 32.7489 20.2204 36.2293C20.5596 37.9759 20.955 39.3398 21.3723 40.2485C21.5819 40.7052 21.7783 41.0048 21.9436 41.179C22.0601 41.3017 22.1276 41.3289 22.1475 41.3344C22.1674 41.3289 22.2349 41.3017 22.3514 41.179C22.5167 41.0048 22.7131 40.7052 22.9227 40.2485C23.34 39.3398 23.7354 37.9759 24.0746 36.2293C24.7505 32.7489 25.1737 27.9072 25.1737 22.536ZM22.1413 3.73634C22.1413 3.73641 22.1422 3.7366 22.1441 3.73672L22.1413 3.73634ZM22.1509 3.73673C22.1528 3.73661 22.1537 3.73641 22.1537 3.73634L22.1509 3.73673ZM22.1537 41.3356C22.1537 41.3355 22.1528 41.3353 22.1508 41.3352L22.1537 41.3356ZM22.1442 41.3352C22.1423 41.3353 22.1413 41.3355 22.1413 41.3356L22.1442 41.3352Z" stroke="#644E80" stroke-width="1.55028"/>
<circle cx="22.1799" cy="22.6059" r="1.5" fill="#C50909"/>
</svg>
