<svg width="43" height="43" viewBox="0 0 43 43" fill="none" xmlns="http://www.w3.org/2000/svg">
<circle cx="21.9625" cy="21.5" r="12.025" stroke="#FBB500" stroke-width="0.925"/>
<path d="M21.9625 7.625V4.85M21.9625 4.85L19.65 3M21.9625 4.85L24.275 3" stroke="#AD3392" stroke-width="0.925"/>
<path d="M11.5727 12.4977L9.61045 10.5355M9.61045 10.5355L6.66711 10.8625M9.61045 10.5355L9.93748 7.59215" stroke="#AD3392" stroke-width="0.925"/>
<path d="M11.5727 31.4273L9.61045 33.3895M9.61045 33.3895L6.66711 33.0625M9.61045 33.3895L9.93748 36.3329" stroke="#AD3392" stroke-width="0.925"/>
<path d="M33.2773 29.5773L35.2395 31.5395M35.2395 31.5395L38.1829 31.2125M35.2395 31.5395L34.9125 34.4829" stroke="#AD3392" stroke-width="0.925"/>
<path d="M31.4273 11.5727L33.3896 9.61046M33.3896 9.61046L36.3329 9.9375M33.3896 9.61046L33.0625 6.66713" stroke="#AD3392" stroke-width="0.925"/>
<path d="M21.9625 35.375V38.15M21.9625 38.15L19.65 40M21.9625 38.15L24.275 40" stroke="#AD3392" stroke-width="0.925"/>
<path d="M35.375 21.0375H38.15M38.15 21.0375L40 23.35M38.15 21.0375L40 18.725" stroke="#AD3392" stroke-width="0.925"/>
<path d="M7.625 20.575H4.85M4.85 20.575L3 22.8875M4.85 20.575L3 18.2625" stroke="#AD3392" stroke-width="0.925"/>
<circle cx="21.9625" cy="21.5" r="13.875" stroke="#FBB500" stroke-width="0.925"/>
<circle cx="16.875" cy="17.3375" r="0.925" fill="#AF0404"/>
<circle cx="16.875" cy="22.8875" r="0.925" fill="#AF0404"/>
<circle cx="21.5" cy="18.2625" r="0.925" fill="#AF0404"/>
<circle cx="26.125" cy="15.4875" r="0.925" fill="#AF0404"/>
<circle cx="26.125" cy="24.7375" r="0.925" fill="#AF0404"/>
</svg>
