<svg width="43" height="43" viewBox="0 0 43 43" fill="none" xmlns="http://www.w3.org/2000/svg">
<g clip-path="url(#clip0)">
<path d="M6.56854 8.71493L9.47974 8.74896" stroke="#AF0404" stroke-width="0.920664" stroke-linecap="round"/>
<path d="M12.3229 14.6054L12.7579 14.756" stroke="#AF0404" stroke-width="0.920664" stroke-linecap="round"/>
<path d="M14.2692 18.6145L14.7042 18.7651" stroke="#AF0404" stroke-width="0.920664" stroke-linecap="round"/>
<path d="M13.696 9.23498L10.9355 8.76597" stroke="#006585" stroke-width="0.920664" stroke-linecap="round"/>
<path d="M18.0829 22.2389L19.8159 21.1307" stroke="#AF0404" stroke-width="0.920664" stroke-linecap="round"/>
<path d="M22.9555 18.2163L20.8887 20.1054" stroke="#006585" stroke-width="0.920664" stroke-linecap="round"/>
<path d="M16.6668 17.7055L15.865 18.0948" stroke="#006585" stroke-width="0.920664" stroke-linecap="round"/>
<path d="M11.3023 14.739L10.2817 14.8727" stroke="#006585" stroke-width="0.920664" stroke-linecap="round"/>
<path d="M7.27087 10.9068L9.74709 10.7902" stroke="#0EA04D" stroke-width="0.920664" stroke-linecap="round"/>
<path d="M13.0933 10.9749L11.2027 10.8072" stroke="#AD3392" stroke-width="0.920664" stroke-linecap="round"/>
<path d="M15.4851 20.5079L16.6435 19.6984" stroke="#0EA04D" stroke-width="0.920664" stroke-linecap="round"/>
<path d="M18.4534 18.3243L17.5423 19.0851" stroke="#AD3392" stroke-width="0.920664" stroke-linecap="round"/>
<path d="M16.8709 21.3214L18.0293 20.5119" stroke="#0EA04D" stroke-width="0.920664" stroke-linecap="round"/>
<path d="M20.8473 18.153L18.928 19.8986" stroke="#AD3392" stroke-width="0.920664" stroke-linecap="round"/>
<path d="M25.2483 18.6765L23 20.6447" stroke="#AF0404" stroke-width="0.920664" stroke-linecap="round"/>
<path d="M20.191 23.1395L22.1103 21.3939" stroke="#1162A1" stroke-width="0.920664" stroke-linecap="round"/>
<path d="M27.035 19.2953L24.7867 21.2635" stroke="#1162A1" stroke-width="0.920664" stroke-linecap="round"/>
<path d="M22.3056 23.5284L23.8968 22.0127" stroke="#AF0404" stroke-width="0.920664" stroke-linecap="round"/>
<path d="M28.3663 20.2332L26.5733 21.8824" stroke="#0EA04D" stroke-width="0.920664" stroke-linecap="round"/>
<path d="M25.0509 23.4756L25.6835 22.6316" stroke="#AD3392" stroke-width="0.920664" stroke-linecap="round"/>
<path d="M29.6067 21.2348L28.3599 22.5012" stroke="#0EA04D" stroke-width="0.920664" stroke-linecap="round"/>
<path d="M27.3017 23.7693L27.4701 23.2504" stroke="#AD3392" stroke-width="0.920664" stroke-linecap="round"/>
<path d="M30.6436 22.4919L30.1214 23.0247" stroke="#1162A1" stroke-width="0.920664" stroke-linecap="round"/>
<path d="M28.9033 24.0318L29.1503 23.8061" stroke="#AF0404" stroke-width="0.920664" stroke-linecap="round"/>
<path d="M33.9497 26.0058L33.5934 26.6484" stroke="#0EA04D" stroke-width="0.920664" stroke-linecap="round"/>
<path d="M32.1066 27.7333L32.7391 27.2932" stroke="#AD3392" stroke-width="0.920664" stroke-linecap="round"/>
<path d="M35.2762 26.9138L34.0742 28.1489" stroke="#AF0404" stroke-width="0.920664" stroke-linecap="round"/>
<path d="M32.0186 30.1157L33.1843 28.8981" stroke="#1162A1" stroke-width="0.920664" stroke-linecap="round"/>
<path d="M36.2649 28.2838L34.4517 29.9472" stroke="#0EA04D" stroke-width="0.920664" stroke-linecap="round"/>
<path d="M31.6427 32.4419L33.562 30.6963" stroke="#AD3392" stroke-width="0.920664" stroke-linecap="round"/>
<path d="M37.3894 29.7842L34.7262 32.0432" stroke="#AF0404" stroke-width="0.920664" stroke-linecap="round"/>
<path d="M31.1235 34.2185L33.6837 32.6041" stroke="#1162A1" stroke-width="0.920664" stroke-linecap="round"/>
<path d="M12.775 13.3004L10.8844 13.1328" stroke="#0EA04D" stroke-width="0.920664" stroke-linecap="round"/>
<path d="M8.40818 13.2494L9.4288 13.1157" stroke="#AD3392" stroke-width="0.920664" stroke-linecap="round"/>
<path d="M6.46899 4.7831C5.59254 9.18877 7.24606 18.0108 20.8718 18.0537C34.4976 18.0965 32.8155 29.9852 30.2712 35.9243" stroke="#7E7E7E" stroke-width="0.920664"/>
<path d="M38.7541 36.9139C39.6305 32.5082 37.977 23.6862 24.3513 23.6434C10.7255 23.6005 12.4076 11.7118 14.9519 5.77274" stroke="#7E7E7E" stroke-width="0.920664"/>
</g>
<defs>
<clipPath id="clip0">
<rect width="43" height="43" fill="white"/>
</clipPath>
</defs>
</svg>
