<svg width="43" height="43" viewBox="0 0 43 43" fill="none" xmlns="http://www.w3.org/2000/svg">
<circle cx="14.4" cy="11.88" r="2.87998" fill="#C4C4C4"/>
<mask id="mask0" mask-type="alpha" maskUnits="userSpaceOnUse" x="9" y="13" width="11" height="8">
<rect width="10.9199" height="6.94905" transform="matrix(1 0 0 -1 9.00006 20.5385)" fill="#C4C4C4"/>
</mask>
<g mask="url(#mask0)">
<circle r="5.47196" transform="matrix(1 0 0 -1 14.448 20.232)" fill="#C4C4C4"/>
</g>
<circle cx="14.4" cy="25.3415" r="2.87998" fill="#C4C4C4"/>
<mask id="mask1" mask-type="alpha" maskUnits="userSpaceOnUse" x="9" y="27" width="11" height="7">
<rect width="10.9199" height="6.94905" transform="matrix(1 0 0 -1 9.00006 34)" fill="#C4C4C4"/>
</mask>
<g mask="url(#mask1)">
<circle r="5.47196" transform="matrix(1 0 0 -1 14.448 33.6935)" fill="#C4C4C4"/>
</g>
<circle cx="27.8615" cy="25.3415" r="2.87998" fill="#C4C4C4"/>
<mask id="mask2" mask-type="alpha" maskUnits="userSpaceOnUse" x="22" y="27" width="12" height="7">
<rect width="10.9199" height="6.94905" transform="matrix(1 0 0 -1 22.4616 34)" fill="#C4C4C4"/>
</mask>
<g mask="url(#mask2)">
<circle r="5.47196" transform="matrix(1 0 0 -1 27.9095 33.6935)" fill="#C4C4C4"/>
</g>
<circle cx="27.8615" cy="11.88" r="2.87998" fill="#AD3392"/>
<mask id="mask3" mask-type="alpha" maskUnits="userSpaceOnUse" x="22" y="13" width="12" height="8">
<rect width="10.9199" height="6.94905" transform="matrix(1 0 0 -1 22.4616 20.5385)" fill="#AD3392"/>
</mask>
<g mask="url(#mask3)">
<circle r="5.47196" transform="matrix(1 0 0 -1 27.9095 20.232)" fill="#AD3392"/>
</g>
</svg>
