<svg width="43" height="43" viewBox="0 0 43 43" fill="none" xmlns="http://www.w3.org/2000/svg">
<ellipse cx="10.7668" cy="20.5" rx="4.6847" ry="4.5" fill="url(#paint0_radial)"/>
<ellipse cx="22.2183" cy="20.5" rx="4.6847" ry="4.5" fill="url(#paint1_radial)"/>
<ellipse cx="27.4235" cy="22.5" rx="4.6847" ry="4.5" fill="url(#paint2_radial)"/>
<ellipse cx="25.3414" cy="32.5" rx="4.6847" ry="4.5" fill="url(#paint3_radial)"/>
<ellipse cx="27.4235" cy="28.5" rx="4.6847" ry="4.5" fill="url(#paint4_radial)"/>
<ellipse cx="9.72572" cy="29.5" rx="4.6847" ry="4.5" fill="url(#paint5_radial)"/>
<ellipse cx="8.6847" cy="25.5" rx="4.6847" ry="4.5" fill="url(#paint6_radial)"/>
<ellipse cx="15.972" cy="34.5" rx="4.6847" ry="4.5" fill="url(#paint7_radial)"/>
<ellipse cx="21.1773" cy="35.5" rx="4.6847" ry="4.5" fill="url(#paint8_radial)"/>
<ellipse cx="23.2593" cy="26.5" rx="4.6847" ry="4.5" fill="url(#paint9_radial)"/>
<ellipse cx="20.1362" cy="32.5" rx="4.6847" ry="4.5" fill="url(#paint10_radial)"/>
<ellipse cx="11.8078" cy="25.5" rx="4.6847" ry="4.5" fill="url(#paint11_radial)"/>
<ellipse cx="17.0131" cy="19.5" rx="4.6847" ry="4.5" fill="url(#paint12_radial)"/>
<ellipse cx="17.0131" cy="26.5" rx="4.6847" ry="4.5" fill="url(#paint13_radial)"/>
<ellipse cx="12.8489" cy="32.5" rx="4.6847" ry="4.5" fill="url(#paint14_radial)"/>
<path d="M38.1588 7.41421L30.5751 17.4474L28.1256 14.9979L38.1588 7.41421Z" fill="#F2C94C"/>
<path d="M23.4142 25.8769L33.4474 18.2932L30.9979 15.8437L23.4142 25.8769Z" fill="#F2C94C"/>
<path d="M29.1588 4.41421L21.5751 14.4474L19.1256 11.9979L29.1588 4.41421Z" fill="#F2C94C"/>
<path d="M14.4142 22.8769L24.4474 15.2932L21.9979 12.8437L14.4142 22.8769Z" fill="#F2C94C"/>
<defs>
<radialGradient id="paint0_radial" cx="0" cy="0" r="1" gradientUnits="userSpaceOnUse" gradientTransform="translate(10.7668 20.5) rotate(90) scale(4.5 4.6847)">
<stop stop-color="#CD0000"/>
<stop offset="1" stop-color="#874879"/>
</radialGradient>
<radialGradient id="paint1_radial" cx="0" cy="0" r="1" gradientUnits="userSpaceOnUse" gradientTransform="translate(22.2183 20.5) rotate(90) scale(4.5 4.6847)">
<stop stop-color="#CD0000"/>
<stop offset="1" stop-color="#874879"/>
</radialGradient>
<radialGradient id="paint2_radial" cx="0" cy="0" r="1" gradientUnits="userSpaceOnUse" gradientTransform="translate(27.4235 22.5) rotate(90) scale(4.5 4.6847)">
<stop stop-color="#CD0000"/>
<stop offset="1" stop-color="#874879"/>
</radialGradient>
<radialGradient id="paint3_radial" cx="0" cy="0" r="1" gradientUnits="userSpaceOnUse" gradientTransform="translate(25.3414 32.5) rotate(90) scale(4.5 4.6847)">
<stop stop-color="#CD0000"/>
<stop offset="1" stop-color="#874879"/>
</radialGradient>
<radialGradient id="paint4_radial" cx="0" cy="0" r="1" gradientUnits="userSpaceOnUse" gradientTransform="translate(27.4235 28.5) rotate(90) scale(4.5 4.6847)">
<stop stop-color="#CD0000"/>
<stop offset="1" stop-color="#874879"/>
</radialGradient>
<radialGradient id="paint5_radial" cx="0" cy="0" r="1" gradientUnits="userSpaceOnUse" gradientTransform="translate(9.72572 29.5) rotate(90) scale(4.5 4.6847)">
<stop stop-color="#CD0000"/>
<stop offset="1" stop-color="#874879"/>
</radialGradient>
<radialGradient id="paint6_radial" cx="0" cy="0" r="1" gradientUnits="userSpaceOnUse" gradientTransform="translate(8.6847 25.5) rotate(90) scale(4.5 4.6847)">
<stop stop-color="#CD0000"/>
<stop offset="1" stop-color="#874879"/>
</radialGradient>
<radialGradient id="paint7_radial" cx="0" cy="0" r="1" gradientUnits="userSpaceOnUse" gradientTransform="translate(15.972 34.5) rotate(90) scale(4.5 4.6847)">
<stop stop-color="#CD0000"/>
<stop offset="1" stop-color="#874879"/>
</radialGradient>
<radialGradient id="paint8_radial" cx="0" cy="0" r="1" gradientUnits="userSpaceOnUse" gradientTransform="translate(21.1773 35.5) rotate(90) scale(4.5 4.6847)">
<stop stop-color="#CD0000"/>
<stop offset="1" stop-color="#874879"/>
</radialGradient>
<radialGradient id="paint9_radial" cx="0" cy="0" r="1" gradientUnits="userSpaceOnUse" gradientTransform="translate(23.2593 26.5) rotate(90) scale(4.5 4.6847)">
<stop stop-color="#CD0000"/>
<stop offset="1" stop-color="#874879"/>
</radialGradient>
<radialGradient id="paint10_radial" cx="0" cy="0" r="1" gradientUnits="userSpaceOnUse" gradientTransform="translate(20.1362 32.5) rotate(90) scale(4.5 4.6847)">
<stop stop-color="#CD0000"/>
<stop offset="1" stop-color="#874879"/>
</radialGradient>
<radialGradient id="paint11_radial" cx="0" cy="0" r="1" gradientUnits="userSpaceOnUse" gradientTransform="translate(11.8078 25.5) rotate(90) scale(4.5 4.6847)">
<stop stop-color="#CD0000"/>
<stop offset="1" stop-color="#874879"/>
</radialGradient>
<radialGradient id="paint12_radial" cx="0" cy="0" r="1" gradientUnits="userSpaceOnUse" gradientTransform="translate(17.0131 19.5) rotate(90) scale(4.5 4.6847)">
<stop stop-color="#CD0000"/>
<stop offset="1" stop-color="#874879"/>
</radialGradient>
<radialGradient id="paint13_radial" cx="0" cy="0" r="1" gradientUnits="userSpaceOnUse" gradientTransform="translate(17.0131 26.5) rotate(90) scale(4.5 4.6847)">
<stop stop-color="#CD0000"/>
<stop offset="1" stop-color="#874879"/>
</radialGradient>
<radialGradient id="paint14_radial" cx="0" cy="0" r="1" gradientUnits="userSpaceOnUse" gradientTransform="translate(12.8489 32.5) rotate(90) scale(4.5 4.6847)">
<stop stop-color="#CD0000"/>
<stop offset="1" stop-color="#874879"/>
</radialGradient>
</defs>
</svg>
